{"title":"Marilyn Monroe : Don t Bother to Knock (1952)(NL SUBS) 2Lions-Te","uid":5669196,"size":3391747736,"categoryP":"video","categoryS":"movies_dvdr","magnet":"?xt=urn:btih:300cf732d804baa72b4d67357eed4e9801c6e121&amp;dn=Marilyn+Monroe+%3A+Don+t+Bother+to+Knock+%281952%29%28NL+SUBS%29+2Lions-Te&amp;tr=udp%3A%2F%2Ftracker.openbittorrent.com%3A80&amp;tr=udp%3A%2F%2Fopen.demonii.com%3A1337&amp;tr=udp%3A%2F%2Ftracker.coppersurfer.tk%3A6969&amp;tr=udp%3A%2F%2Fexodus.desync.com%3A6969","seeders":2,"leechers":1,"uploader":"Pioen","files":-1,"time":1278275940,"description":"Marilyn Monroe  Don t Bother to Knock (1952)      \nVerenigde Staten\nDrama / Thriller\n76 minuten\n\ngeregisseerd door Roy Ward Baker\nmet Richard Widmark, Marilyn Monroe en Anne Bancroft\n\nNell Forbes is ontslagen uit een inrichting en krijgt via haar oom werk als babysitter in een hotel. Wanneer ze haar overbuurman Jed Towers ontmoet, krijgt ze het vreemde idee dat hij haar overleden ex-man is. Niets houdt haar tegen hem terug te winnen. Zelfs niet Bunny; het meisje op wie ze moet oppassen\n\nEnglish\n\nAirline pilot Jed stays at the New York hotel where girlfriend Lyn is a singer. He sees Nell in a window opposite his and they get chummy. When the girl she's baby-sitting, Bunny, enters Nell goes crazy and sends her to her room. She fantasizes that Jed is her long lost fiance. Jed comes to realize that Nell is more than a little whacko.\n\n\nSpotinformatie \nCategorie : Beeld \nFormaat : DVD5 \nBron : Retail\nMenu : Yes\nAudio : English \nSubs : English, Dutch \nCover : Yes \nGenre : Drama\nThriller\n\nVideo\nID                               : 224 (0xE0)\nFormat                           : MPEG Video\nFormat version                   : Version 2\nFormat profile                   : Main@Main\nFormat settings, Matrix          : Default\nDuration                         : 24mn 47s\nBit rate mode                    : Variable\nBit rate                         : 5 354 Kbps\nNominal bit rate                 : 7 500 Kbps\nWidth                            : 720 pixels\nHeight                           : 576 pixels\nDisplay aspect ratio             : 4/3\nFrame rate                       : 25.000 fps\nStandard                         : PAL\nColorimetry                      : 4:2:0\nScan type                        : Progressive\nScan order                       : Top Field First\nBits/(Pixel*Frame)               : 0.516\nStream size                      : 949 MiB (93%)\n\nAudio\nID                               : 128 (0x80)\nFormat                           : AC-3\nFormat/Info                      : Audio Coding 3\nDuration                         : 24mn 47s\nBit rate mode                    : Constant\nBit rate                         : 192 Kbps\nChannel(s)                       : 2 channels\nChannel positions                : L R\nSampling rate                    : 48.0 KHz\nVideo delay                      : -80ms\nStream size                      : 34.0 MiB (3%)\n\n\nWeblink : &lt;a href=&quot; http://www.moviemeter.nl/film/7410&quot; rel=&quot;nofollow&quot; target=&quot;_NEW&quot;&gt; http://www.moviemeter.nl/film/7410&lt;/a&gt; \nWeblink : &lt;a href=&quot; http://www.imdb.com/title/tt0044557&quot; rel=&quot;nofollow&quot; target=&quot;_NEW&quot;&gt; http://www.imdb.com/title/tt0044557&lt;/a&gt;\n*****************************************\n\nBrought to you by \n\n\n2Lions Team\n\nmeer zien??\nKom dan eens kijken op ons forum \n\n\n\n\n2Lions the site to be for all your Dutch MOVIES and more\n\n******************************************\n\n\nDON T HIT AND RUN Niet gelijk afhaken als de FILM binnen is blijf seeden. \n\nDon`t quit after you finished the download, but keep seeding\n\n\nThere are fake torrents from uploaders who use our team name.\nThose are not ours, or members from our team.\nWe 2Lions-Team are not responsible for the fake posts on our name\n\nWij 2Lions-Team zijn niet verantwoordelijk voor die zieke FAKE posten die op onze naam worden gedaan\n\nPlease check our site !!!\t \n\n\n \n \n \n","torrent":{"xt":"urn:btih:300cf732d804baa72b4d67357eed4e9801c6e121","amp;dn":"Marilyn+Monroe+%3A+Don+t+Bother+to+Knock+%281952%29%28NL+SUBS%29+2Lions-Te","amp;tr":["udp%3A%2F%2Ftracker.openbittorrent.com%3A80","udp%3A%2F%2Fopen.demonii.com%3A1337","udp%3A%2F%2Ftracker.coppersurfer.tk%3A6969","udp%3A%2F%2Fexodus.desync.com%3A6969"],"infoHash":"300cf732d804baa72b4d67357eed4e9801c6e121","infoHashBuffer":{"type":"Buffer","data":[48,12,247,50,216,4,186,167,43,77,103,53,126,237,78,152,1,198,225,33]},"announce":[],"urlList":[]}}